<svg width="143" height="331" viewBox="0 0 143 331" fill="none" xmlns="http://www.w3.org/2000/svg">
<path d="M134.862 164.051C132.851 161.628 130.284 158.333 129.541 156.426C128.319 153.133 127.416 142.581 127.416 142.581C127.039 130.089 123.901 124.683 123.901 124.683C118.486 116.237 117.473 100.535 117.473 100.535L117.228 73.9687C115.358 55.844 101.607 55.7146 101.607 55.7146C87.7474 53.6821 85.829 49.3445 85.829 49.3445C82.886 45.2362 84.5668 37.3411 84.5668 37.3411C87.0106 35.4065 87.9386 30.279 87.9386 30.279C91.9807 27.2801 91.7935 22.8405 89.9577 22.8856C88.4217 22.9229 88.7861 21.7213 88.7861 21.7213C91.3245 1.81892 73.1612 0.833008 73.1612 0.833008H70.3853C70.3853 0.833008 52.2622 1.84244 54.7684 21.7213C54.7684 21.7213 55.0925 22.9229 53.5928 22.8856C51.7228 22.8425 51.5396 27.2605 55.5998 30.279C55.5998 30.279 56.5238 35.4065 58.9736 37.3411C58.9736 37.3411 60.6423 45.2342 57.7094 49.3445C57.7094 49.3445 55.7789 53.6938 41.9295 55.7146C41.9295 55.7146 28.2029 55.844 26.3086 73.9706L26.0731 100.537C26.0731 100.537 25.0425 116.263 19.6295 124.685C19.6295 124.685 16.5053 130.091 16.1108 142.582C16.1108 142.582 15.213 153.135 13.9911 156.428C13.2584 158.359 10.6737 161.628 8.66672 164.053C4.71924 168.859 -1.91159 178.844 1.63129 179.949C1.63129 179.949 4.36696 180.206 8.02256 173.169C8.02256 173.169 7.95612 175.872 5.0091 183.746C4.44949 185.224 1.99565 192.668 5.95722 189.988C5.95722 189.988 7.77698 188.763 10.1785 181.074C10.1785 181.074 8.90426 193.999 10.3053 194.642C12.1673 195.52 13.2 192.989 14.0233 181.652C14.0233 181.652 14.8808 178.001 15.2794 191.96C15.3016 192.66 16.4067 196.249 17.9064 193.205C19.1565 190.641 18.6069 183.822 18.6069 181.537C18.6069 181.537 20.2515 190.353 21.7613 190.353C21.7613 190.353 23.5468 192.413 22.8362 181.472C22.6852 179.68 23.3435 176.003 23.42 174.908L23.6012 170.703C23.6012 170.703 23.1603 165.899 23.1603 163.904C23.1603 163.41 24.9217 156.842 29.5939 149.937C29.5939 149.937 39.2703 133.194 38.6463 122.251C38.6463 122.251 38.5155 111.806 42.4146 105.882C42.4146 105.882 45.1906 135.458 43.3165 143.766C43.3165 143.766 34.5982 164.159 36.5065 179.379C37.9257 190.692 40.6573 214.901 43.4252 224.456C44.8645 229.395 44.017 241.863 45.1805 244.964C45.6878 246.315 45.4201 247.536 44.3008 250.639C40.3654 261.354 40.8848 268.893 50.7324 297.337C50.7324 297.337 53.7538 303.633 52.228 314.958C52.228 314.958 45.9334 327.539 49.9875 327.808C49.9875 327.808 50.3157 328.645 51.6443 327.969C51.6443 327.969 53.8102 330.146 56.1674 328.978C56.1674 328.978 58.3435 330.652 60.1934 329.16C60.1934 329.16 61.7133 330.811 63.8954 329.482C63.8954 329.482 66.7357 331.326 68.4165 329.309C68.4165 329.309 71.4521 329.997 66.0573 316.722C66.0573 316.722 63.994 302.694 62.8768 299.946C60.7229 294.685 62.2366 280.39 62.7117 277.301C63.4404 272.187 63.0459 263.422 61.6811 256.658C60.7108 251.807 63.3982 242.649 64.3664 237.016C66.4156 225.154 70.3994 194.887 69.9022 189.193L71.5508 189.749C72.7445 189.749 73.5255 189.193 73.5255 189.193C73.0303 194.91 76.998 225.156 79.0714 237.016C80.0436 242.647 82.727 251.807 81.7607 256.658C80.3939 263.422 79.9993 272.187 80.7301 277.301C81.2071 280.39 82.7269 294.697 80.569 299.946C79.4377 302.692 77.3824 316.722 77.3824 316.722C71.9896 329.976 75.0252 329.309 75.0252 329.309C76.7061 331.326 79.5565 329.482 79.5565 329.482C81.7386 330.811 83.2624 329.16 83.2624 329.16C85.1083 330.672 87.2723 328.978 87.2723 328.978C89.6416 330.148 91.7955 327.969 91.7955 327.969C93.1382 328.645 93.4683 327.808 93.4683 327.808C97.4903 327.549 91.2218 314.958 91.2218 314.958C89.702 303.633 92.7195 297.337 92.7195 297.337C102.567 268.893 103.074 261.354 99.155 250.639C98.0177 247.561 97.764 246.317 98.2713 244.964C99.4489 241.863 98.5914 229.395 100.023 224.456C102.803 214.911 105.528 190.702 106.941 179.379C108.858 164.159 100.133 143.766 100.133 143.766C98.2613 135.458 101.037 105.882 101.037 105.882C104.936 111.804 104.804 122.251 104.804 122.251C104.165 133.184 113.858 149.937 113.858 149.937C118.528 156.865 120.294 163.43 120.294 163.904C120.294 165.907 119.849 170.703 119.849 170.703L120.03 174.908C120.114 176.003 120.734 179.68 120.622 181.472C119.909 192.39 121.693 190.353 121.693 190.353C123.208 190.353 124.849 181.537 124.849 181.537C124.849 183.81 124.277 190.631 125.547 193.205C127.079 196.231 128.152 192.662 128.178 191.96C128.573 178.001 129.431 181.652 129.431 181.652C130.248 192.97 131.283 195.52 133.134 194.642C134.544 193.977 133.265 181.074 133.265 181.074C135.669 188.72 137.495 189.988 137.495 189.988C141.45 192.668 138.998 185.204 138.443 183.746C135.492 175.87 135.425 173.169 135.425 173.169C139.063 180.227 141.819 179.949 141.819 179.949C145.446 178.842 138.771 168.859 134.862 164.051Z" fill="#F1F3F4"/>
</svg>
